<svg xmlns="http://www.w3.org/2000/svg" width="340" height="200" viewBox="0 0 340 200" font-family="'Segoe UI', Ubuntu, Sans-Serif">
  <rect x="0.5" y="0.5" width="339" height="199" rx="6" fill="#1f2023" stroke="#000000" stroke-opacity="0.00"/>
  <text x="20" y="30" font-size="15" font-weight="600" fill="#e03c8a">Most Commit Language (last year)</text>
  <rect x="20" y="47" width="10" height="10" fill="#f1e05a" stroke="#1f2023" stroke-width="1"/>
  <text x="36" y="55" font-size="11" fill="#bcb28d">JavaScript 44.67%</text>
  <rect x="20" y="67" width="10" height="10" fill="#00ADD8" stroke="#1f2023" stroke-width="1"/>
  <text x="36" y="75" font-size="11" fill="#bcb28d">Go 13.45%</text>
  <rect x="20" y="87" width="10" height="10" fill="#b07219" stroke="#1f2023" stroke-width="1"/>
  <text x="36" y="95" font-size="11" fill="#bcb28d">Java 10.66%</text>
  <rect x="20" y="107" width="10" height="10" fill="#e34c26" stroke="#1f2023" stroke-width="1"/>
  <text x="36" y="115" font-size="11" fill="#bcb28d">HTML 9.67%</text>
  <rect x="20" y="127" width="10" height="10" fill="#e03c8a" stroke="#1f2023" stroke-width="1"/>
  <text x="36" y="135" font-size="11" fill="#bcb28d">Other 21.54%</text>
  <path d="M250.00,55.00 A55.00,55.00 0 0 1 268.07,161.95 L259.86,138.33 A30.00,30.00 0 0 0 250.00,80.00 Z" fill="#f1e05a" stroke="#1f2023" stroke-width="1.5"/>
  <path d="M268.07,161.95 A55.00,55.00 0 0 1 223.12,157.98 L235.34,136.17 A30.00,30.00 0 0 0 259.86,138.33 Z" fill="#00ADD8" stroke="#1f2023" stroke-width="1.5"/>
  <path d="M223.12,157.98 A55.00,55.00 0 0 1 199.13,130.92 L222.25,121.41 A30.00,30.00 0 0 0 235.34,136.17 Z" fill="#b07219" stroke="#1f2023" stroke-width="1.5"/>
  <path d="M199.13,130.92 A55.00,55.00 0 0 1 196.29,98.14 L220.71,103.53 A30.00,30.00 0 0 0 222.25,121.41 Z" fill="#e34c26" stroke="#1f2023" stroke-width="1.5"/>
  <path d="M196.29,98.14 A55.00,55.00 0 0 1 250.00,55.00 L250.00,80.00 A30.00,30.00 0 0 0 220.71,103.53 Z" fill="#e03c8a" stroke="#1f2023" stroke-width="1.5"/>
</svg>