<svg xmlns="http://www.w3.org/2000/svg" width="340" height="200" viewBox="0 0 340 200" font-family="'Segoe UI', Ubuntu, Sans-Serif">
  <rect x="0.5" y="0.5" width="339" height="199" rx="6" fill="#0a0f0b" stroke="#000000" stroke-opacity="0.00"/>
  <text x="20" y="30" font-size="15" font-weight="600" fill="#abd200">Most Commit Language (all time)</text>
  <rect x="20" y="47" width="10" height="10" fill="#f1e05a" stroke="#0a0f0b" stroke-width="1"/>
  <text x="36" y="55" font-size="11" fill="#68b587">JavaScript 31.59%</text>
  <rect x="20" y="67" width="10" height="10" fill="#b07219" stroke="#0a0f0b" stroke-width="1"/>
  <text x="36" y="75" font-size="11" fill="#68b587">Java 18.81%</text>
  <rect x="20" y="87" width="10" height="10" fill="#e34c26" stroke="#0a0f0b" stroke-width="1"/>
  <text x="36" y="95" font-size="11" fill="#68b587">HTML 18.78%</text>
  <rect x="20" y="107" width="10" height="10" fill="#00ADD8" stroke="#0a0f0b" stroke-width="1"/>
  <text x="36" y="115" font-size="11" fill="#68b587">Go 7.23%</text>
  <rect x="20" y="127" width="10" height="10" fill="#abd200" stroke="#0a0f0b" stroke-width="1"/>
  <text x="36" y="135" font-size="11" fill="#68b587">Other 23.59%</text>
  <path d="M250.00,55.00 A55.00,55.00 0 0 1 300.36,132.12 L277.47,122.06 A30.00,30.00 0 0 0 250.00,80.00 Z" fill="#f1e05a" stroke="#0a0f0b" stroke-width="1.5"/>
  <path d="M300.36,132.12 A55.00,55.00 0 0 1 248.62,164.98 L249.25,139.99 A30.00,30.00 0 0 0 277.47,122.06 Z" fill="#b07219" stroke="#0a0f0b" stroke-width="1.5"/>
  <path d="M248.62,164.98 A55.00,55.00 0 0 1 198.64,129.68 L221.99,120.73 A30.00,30.00 0 0 0 249.25,139.99 Z" fill="#e34c26" stroke="#0a0f0b" stroke-width="1.5"/>
  <path d="M198.64,129.68 A55.00,55.00 0 0 1 195.21,105.15 L220.12,107.35 A30.00,30.00 0 0 0 221.99,120.73 Z" fill="#00ADD8" stroke="#0a0f0b" stroke-width="1.5"/>
  <path d="M195.21,105.15 A55.00,55.00 0 0 1 250.00,55.00 L250.00,80.00 A30.00,30.00 0 0 0 220.12,107.35 Z" fill="#abd200" stroke="#0a0f0b" stroke-width="1.5"/>
</svg>