<svg xmlns="http://www.w3.org/2000/svg" width="340" height="200" viewBox="0 0 340 200" font-family="'Segoe UI', Ubuntu, Sans-Serif">
  <rect x="0.5" y="0.5" width="339" height="199" rx="6" fill="#ffffff" stroke="#000000" stroke-opacity="0.00"/>
  <text x="20" y="30" font-size="15" font-weight="600" fill="#24292e">Most Commit Language (all time)</text>
  <rect x="20" y="47" width="10" height="10" fill="#f1e05a" stroke="#ffffff" stroke-width="1"/>
  <text x="36" y="55" font-size="11" fill="#24292e">JavaScript 31.56%</text>
  <rect x="20" y="67" width="10" height="10" fill="#b07219" stroke="#ffffff" stroke-width="1"/>
  <text x="36" y="75" font-size="11" fill="#24292e">Java 18.71%</text>
  <rect x="20" y="87" width="10" height="10" fill="#e34c26" stroke="#ffffff" stroke-width="1"/>
  <text x="36" y="95" font-size="11" fill="#24292e">HTML 18.69%</text>
  <rect x="20" y="107" width="10" height="10" fill="#00ADD8" stroke="#ffffff" stroke-width="1"/>
  <text x="36" y="115" font-size="11" fill="#24292e">Go 7.54%</text>
  <rect x="20" y="127" width="10" height="10" fill="#24292e" stroke="#ffffff" stroke-width="1"/>
  <text x="36" y="135" font-size="11" fill="#24292e">Other 23.51%</text>
  <path d="M250.00,55.00 A55.00,55.00 0 0 1 300.40,132.02 L277.49,122.01 A30.00,30.00 0 0 0 250.00,80.00 Z" fill="#f1e05a" stroke="#ffffff" stroke-width="1.5"/>
  <path d="M300.40,132.02 A55.00,55.00 0 0 1 249.07,164.99 L249.49,140.00 A30.00,30.00 0 0 0 277.49,122.01 Z" fill="#b07219" stroke="#ffffff" stroke-width="1.5"/>
  <path d="M249.07,164.99 A55.00,55.00 0 0 1 198.92,130.39 L222.14,121.12 A30.00,30.00 0 0 0 249.49,140.00 Z" fill="#e34c26" stroke="#ffffff" stroke-width="1.5"/>
  <path d="M198.92,130.39 A55.00,55.00 0 0 1 195.24,104.85 L220.13,107.19 A30.00,30.00 0 0 0 222.14,121.12 Z" fill="#00ADD8" stroke="#ffffff" stroke-width="1.5"/>
  <path d="M195.24,104.85 A55.00,55.00 0 0 1 250.00,55.00 L250.00,80.00 A30.00,30.00 0 0 0 220.13,107.19 Z" fill="#24292e" stroke="#ffffff" stroke-width="1.5"/>
</svg>