<svg xmlns="http://www.w3.org/2000/svg" width="340" height="200" viewBox="0 0 340 200" font-family="'Segoe UI', Ubuntu, Sans-Serif">
  <rect x="0.5" y="0.5" width="339" height="199" rx="6" fill="#ffffff" stroke="#e4e2e2" stroke-opacity="1.00"/>
  <text x="20" y="30" font-size="15" font-weight="600" fill="#586e75">Most Commit Language (last year)</text>
  <rect x="20" y="47" width="10" height="10" fill="#f1e05a" stroke="#ffffff" stroke-width="1"/>
  <text x="36" y="55" font-size="11" fill="#586e75">JavaScript 44.73%</text>
  <rect x="20" y="67" width="10" height="10" fill="#00ADD8" stroke="#ffffff" stroke-width="1"/>
  <text x="36" y="75" font-size="11" fill="#586e75">Go 13.30%</text>
  <rect x="20" y="87" width="10" height="10" fill="#b07219" stroke="#ffffff" stroke-width="1"/>
  <text x="36" y="95" font-size="11" fill="#586e75">Java 10.69%</text>
  <rect x="20" y="107" width="10" height="10" fill="#e34c26" stroke="#ffffff" stroke-width="1"/>
  <text x="36" y="115" font-size="11" fill="#586e75">HTML 9.69%</text>
  <rect x="20" y="127" width="10" height="10" fill="#586e75" stroke="#ffffff" stroke-width="1"/>
  <text x="36" y="135" font-size="11" fill="#586e75">Other 21.59%</text>
  <path d="M250.00,55.00 A55.00,55.00 0 0 1 267.88,162.01 L259.75,138.37 A30.00,30.00 0 0 0 250.00,80.00 Z" fill="#f1e05a" stroke="#ffffff" stroke-width="1.5"/>
  <path d="M267.88,162.01 A55.00,55.00 0 0 1 223.42,158.15 L235.50,136.26 A30.00,30.00 0 0 0 259.75,138.37 Z" fill="#00ADD8" stroke="#ffffff" stroke-width="1.5"/>
  <path d="M223.42,158.15 A55.00,55.00 0 0 1 199.23,131.14 L222.30,121.53 A30.00,30.00 0 0 0 235.50,136.26 Z" fill="#b07219" stroke="#ffffff" stroke-width="1.5"/>
  <path d="M199.23,131.14 A55.00,55.00 0 0 1 196.26,98.29 L220.69,103.61 A30.00,30.00 0 0 0 222.30,121.53 Z" fill="#e34c26" stroke="#ffffff" stroke-width="1.5"/>
  <path d="M196.26,98.29 A55.00,55.00 0 0 1 250.00,55.00 L250.00,80.00 A30.00,30.00 0 0 0 220.69,103.61 Z" fill="#586e75" stroke="#ffffff" stroke-width="1.5"/>
</svg>