<svg xmlns="http://www.w3.org/2000/svg" width="340" height="200" viewBox="0 0 340 200" font-family="'Segoe UI', Ubuntu, Sans-Serif">
  <rect x="0.5" y="0.5" width="339" height="199" rx="6" fill="#030314" stroke="#d6e7ff" stroke-opacity="1.00"/>
  <text x="20" y="30" font-size="15" font-weight="600" fill="#5ea9eb">Top Starred Repos</text>
  <circle cx="24" cy="56" r="4" fill="#178600"/>
  <text x="34" y="60" font-size="12" fill="#d6e7ff">time-mocker</text>
  <rect x="160" y="52" width="140" height="10" rx="3" fill="#5090cb" fill-opacity="0.15"/>
  <rect x="160" y="52" width="140.00" height="10" rx="3" fill="#5090cb"/>
  <g transform="translate(306,50.00) scale(0.750)" fill="#5090cb"><path fill-rule="evenodd" d="M8 .25a.75.75 0 01.673.418l1.882 3.815 4.21.612a.75.75 0 01.416 1.279l-3.046 2.97.719 4.192a.75.75 0 01-1.088.791L8 12.347l-3.766 1.98a.75.75 0 01-1.088-.79l.72-4.194L.818 6.374a.75.75 0 01.416-1.28l4.21-.611L7.327.668A.75.75 0 018 .25zm0 2.445L6.615 5.5a.75.75 0 01-.564.41l-3.097.45 2.24 2.184a.75.75 0 01.216.664l-.528 3.084 2.769-1.456a.75.75 0 01.698 0l2.77 1.456-.53-3.084a.75.75 0 01.216-.664l2.24-2.183-3.096-.45a.75.75 0 01-.564-.41L8 2.694v.001z"/></g>
  <text x="334" y="60" font-size="11" font-weight="600" fill="#5090cb" text-anchor="end">1</text>
  <circle cx="24" cy="78" r="4" fill="#00ADD8"/>
  <text x="34" y="82" font-size="12" fill="#d6e7ff">adventofcode</text>
  <rect x="160" y="74" width="140" height="10" rx="3" fill="#5090cb" fill-opacity="0.15"/>
  <rect x="160" y="74" width="140.00" height="10" rx="3" fill="#5090cb"/>
  <g transform="translate(306,72.00) scale(0.750)" fill="#5090cb"><path fill-rule="evenodd" d="M8 .25a.75.75 0 01.673.418l1.882 3.815 4.21.612a.75.75 0 01.416 1.279l-3.046 2.97.719 4.192a.75.75 0 01-1.088.791L8 12.347l-3.766 1.98a.75.75 0 01-1.088-.79l.72-4.194L.818 6.374a.75.75 0 01.416-1.28l4.21-.611L7.327.668A.75.75 0 018 .25zm0 2.445L6.615 5.5a.75.75 0 01-.564.41l-3.097.45 2.24 2.184a.75.75 0 01.216.664l-.528 3.084 2.769-1.456a.75.75 0 01.698 0l2.77 1.456-.53-3.084a.75.75 0 01.216-.664l2.24-2.183-3.096-.45a.75.75 0 01-.564-.41L8 2.694v.001z"/></g>
  <text x="334" y="82" font-size="11" font-weight="600" fill="#5090cb" text-anchor="end">1</text>
  <circle cx="24" cy="100" r="4" fill="#3572A5"/>
  <text x="34" y="104" font-size="12" fill="#d6e7ff">export-telegram-g…</text>
  <rect x="160" y="96" width="140" height="10" rx="3" fill="#5090cb" fill-opacity="0.15"/>
  <rect x="160" y="96" width="140.00" height="10" rx="3" fill="#5090cb"/>
  <g transform="translate(306,94.00) scale(0.750)" fill="#5090cb"><path fill-rule="evenodd" d="M8 .25a.75.75 0 01.673.418l1.882 3.815 4.21.612a.75.75 0 01.416 1.279l-3.046 2.97.719 4.192a.75.75 0 01-1.088.791L8 12.347l-3.766 1.98a.75.75 0 01-1.088-.79l.72-4.194L.818 6.374a.75.75 0 01.416-1.28l4.21-.611L7.327.668A.75.75 0 018 .25zm0 2.445L6.615 5.5a.75.75 0 01-.564.41l-3.097.45 2.24 2.184a.75.75 0 01.216.664l-.528 3.084 2.769-1.456a.75.75 0 01.698 0l2.77 1.456-.53-3.084a.75.75 0 01.216-.664l2.24-2.183-3.096-.45a.75.75 0 01-.564-.41L8 2.694v.001z"/></g>
  <text x="334" y="104" font-size="11" font-weight="600" fill="#5090cb" text-anchor="end">1</text>
  <circle cx="24" cy="122" r="4" fill="#b07219"/>
  <text x="34" y="126" font-size="12" fill="#d6e7ff">lottery-generator</text>
  <rect x="160" y="118" width="140" height="10" rx="3" fill="#5090cb" fill-opacity="0.15"/>
  <rect x="160" y="118" width="140.00" height="10" rx="3" fill="#5090cb"/>
  <g transform="translate(306,116.00) scale(0.750)" fill="#5090cb"><path fill-rule="evenodd" d="M8 .25a.75.75 0 01.673.418l1.882 3.815 4.21.612a.75.75 0 01.416 1.279l-3.046 2.97.719 4.192a.75.75 0 01-1.088.791L8 12.347l-3.766 1.98a.75.75 0 01-1.088-.79l.72-4.194L.818 6.374a.75.75 0 01.416-1.28l4.21-.611L7.327.668A.75.75 0 018 .25zm0 2.445L6.615 5.5a.75.75 0 01-.564.41l-3.097.45 2.24 2.184a.75.75 0 01.216.664l-.528 3.084 2.769-1.456a.75.75 0 01.698 0l2.77 1.456-.53-3.084a.75.75 0 01.216-.664l2.24-2.183-3.096-.45a.75.75 0 01-.564-.41L8 2.694v.001z"/></g>
  <text x="334" y="126" font-size="11" font-weight="600" fill="#5090cb" text-anchor="end">1</text>
</svg>