<svg xmlns="http://www.w3.org/2000/svg" width="340" height="200" viewBox="0 0 340 200" font-family="'Segoe UI', Ubuntu, Sans-Serif">
  <rect x="0.5" y="0.5" width="339" height="199" rx="6" fill="#193549" stroke="#000000" stroke-opacity="0.00"/>
  <text x="20" y="30" font-size="15" font-weight="600" fill="#e683d9">Most Commit Language (all time)</text>
  <rect x="20" y="47" width="10" height="10" fill="#f1e05a" stroke="#193549" stroke-width="1"/>
  <text x="36" y="55" font-size="11" fill="#75eeb2">JavaScript 31.54%</text>
  <rect x="20" y="67" width="10" height="10" fill="#b07219" stroke="#193549" stroke-width="1"/>
  <text x="36" y="75" font-size="11" fill="#75eeb2">Java 18.71%</text>
  <rect x="20" y="87" width="10" height="10" fill="#e34c26" stroke="#193549" stroke-width="1"/>
  <text x="36" y="95" font-size="11" fill="#75eeb2">HTML 18.68%</text>
  <rect x="20" y="107" width="10" height="10" fill="#00ADD8" stroke="#193549" stroke-width="1"/>
  <text x="36" y="115" font-size="11" fill="#75eeb2">Go 7.57%</text>
  <rect x="20" y="127" width="10" height="10" fill="#f34b7d" stroke="#193549" stroke-width="1"/>
  <text x="36" y="135" font-size="11" fill="#75eeb2">C++ 4.53%</text>
  <rect x="20" y="147" width="10" height="10" fill="#3572A5" stroke="#193549" stroke-width="1"/>
  <text x="36" y="155" font-size="11" fill="#75eeb2">Python 4.29%</text>
  <rect x="20" y="167" width="10" height="10" fill="#e683d9" stroke="#193549" stroke-width="1"/>
  <text x="36" y="175" font-size="11" fill="#75eeb2">Other 14.67%</text>
  <path d="M250.00,55.00 A55.00,55.00 0 0 1 300.42,131.98 L277.50,121.99 A30.00,30.00 0 0 0 250.00,80.00 Z" fill="#f1e05a" stroke="#193549" stroke-width="1.5"/>
  <path d="M300.42,131.98 A55.00,55.00 0 0 1 249.13,164.99 L249.53,140.00 A30.00,30.00 0 0 0 277.50,121.99 Z" fill="#b07219" stroke="#193549" stroke-width="1.5"/>
  <path d="M249.13,164.99 A55.00,55.00 0 0 1 198.95,130.47 L222.15,121.16 A30.00,30.00 0 0 0 249.53,140.00 Z" fill="#e34c26" stroke="#193549" stroke-width="1.5"/>
  <path d="M198.95,130.47 A55.00,55.00 0 0 1 195.24,104.83 L220.13,107.18 A30.00,30.00 0 0 0 222.15,121.16 Z" fill="#00ADD8" stroke="#193549" stroke-width="1.5"/>
  <path d="M195.24,104.83 A55.00,55.00 0 0 1 198.91,89.65 L222.13,98.90 A30.00,30.00 0 0 0 220.13,107.18 Z" fill="#f34b7d" stroke="#193549" stroke-width="1.5"/>
  <path d="M198.91,89.65 A55.00,55.00 0 0 1 206.18,76.76 L226.10,91.87 A30.00,30.00 0 0 0 222.13,98.90 Z" fill="#3572A5" stroke="#193549" stroke-width="1.5"/>
  <path d="M206.18,76.76 A55.00,55.00 0 0 1 250.00,55.00 L250.00,80.00 A30.00,30.00 0 0 0 226.10,91.87 Z" fill="#e683d9" stroke="#193549" stroke-width="1.5"/>
</svg>