<svg xmlns="http://www.w3.org/2000/svg" width="340" height="200" viewBox="0 0 340 200" font-family="'Segoe UI', Ubuntu, Sans-Serif">
  <rect x="0.5" y="0.5" width="339" height="199" rx="6" fill="#002046" stroke="#000000" stroke-opacity="0.00"/>
  <text x="20" y="30" font-size="15" font-weight="600" fill="#ffff00">Most Commit Language (last year)</text>
  <rect x="20" y="47" width="10" height="10" fill="#f1e05a" stroke="#002046" stroke-width="1"/>
  <text x="36" y="55" font-size="11" fill="#ffffff">JavaScript 37.80%</text>
  <rect x="20" y="67" width="10" height="10" fill="#00ADD8" stroke="#002046" stroke-width="1"/>
  <text x="36" y="75" font-size="11" fill="#ffffff">Go 26.97%</text>
  <rect x="20" y="87" width="10" height="10" fill="#3572A5" stroke="#002046" stroke-width="1"/>
  <text x="36" y="95" font-size="11" fill="#ffffff">Python 6.27%</text>
  <rect x="20" y="107" width="10" height="10" fill="#e34c26" stroke="#002046" stroke-width="1"/>
  <text x="36" y="115" font-size="11" fill="#ffffff">HTML 4.85%</text>
  <rect x="20" y="127" width="10" height="10" fill="#3178c6" stroke="#002046" stroke-width="1"/>
  <text x="36" y="135" font-size="11" fill="#ffffff">TypeScript 4.69%</text>
  <rect x="20" y="147" width="10" height="10" fill="#ff3e00" stroke="#002046" stroke-width="1"/>
  <text x="36" y="155" font-size="11" fill="#ffffff">Svelte 4.67%</text>
  <rect x="20" y="167" width="10" height="10" fill="#ffff00" stroke="#002046" stroke-width="1"/>
  <text x="36" y="175" font-size="11" fill="#ffffff">Other 14.74%</text>
  <path d="M250.00,55.00 A55.00,55.00 0 0 1 288.14,149.62 L270.81,131.61 A30.00,30.00 0 0 0 250.00,80.00 Z" fill="#f1e05a" stroke="#002046" stroke-width="1.5"/>
  <path d="M288.14,149.62 A55.00,55.00 0 0 1 205.96,142.95 L225.98,127.97 A30.00,30.00 0 0 0 270.81,131.61 Z" fill="#00ADD8" stroke="#002046" stroke-width="1.5"/>
  <path d="M205.96,142.95 A55.00,55.00 0 0 1 196.69,123.51 L220.92,117.37 A30.00,30.00 0 0 0 225.98,127.97 Z" fill="#3572A5" stroke="#002046" stroke-width="1.5"/>
  <path d="M196.69,123.51 A55.00,55.00 0 0 1 195.09,106.87 L220.05,108.29 A30.00,30.00 0 0 0 220.92,117.37 Z" fill="#e34c26" stroke="#002046" stroke-width="1.5"/>
  <path d="M195.09,106.87 A55.00,55.00 0 0 1 198.36,91.07 L221.83,99.67 A30.00,30.00 0 0 0 220.05,108.29 Z" fill="#3178c6" stroke="#002046" stroke-width="1.5"/>
  <path d="M198.36,91.07 A55.00,55.00 0 0 1 206.03,76.95 L226.02,91.97 A30.00,30.00 0 0 0 221.83,99.67 Z" fill="#ff3e00" stroke="#002046" stroke-width="1.5"/>
  <path d="M206.03,76.95 A55.00,55.00 0 0 1 250.00,55.00 L250.00,80.00 A30.00,30.00 0 0 0 226.02,91.97 Z" fill="#ffff00" stroke="#002046" stroke-width="1.5"/>
</svg>