<svg xmlns="http://www.w3.org/2000/svg" width="500" height="220" viewBox="0 0 500 220" font-family="'Segoe UI', Ubuntu, Sans-Serif">
  <rect x="0.5" y="0.5" width="499" height="219" rx="8" fill="#282a36" stroke="#282a36" stroke-opacity="1.00"/>
  <text x="25" y="35" font-size="18" font-weight="600" fill="#ff79c6">Most Commit Language (last year)</text>
  <rect x="30" y="60" width="12" height="12" fill="#f1e05a" stroke="#282a36" stroke-width="1"/>
  <text x="50" y="70" font-size="13" fill="#ffb86c">JavaScript 26.92%</text>
  <rect x="30" y="82" width="12" height="12" fill="#3572A5" stroke="#282a36" stroke-width="1"/>
  <text x="50" y="92" font-size="13" fill="#ffb86c">Python 22.94%</text>
  <rect x="30" y="104" width="12" height="12" fill="#178600" stroke="#282a36" stroke-width="1"/>
  <text x="50" y="114" font-size="13" fill="#ffb86c">C# 21.39%</text>
  <rect x="30" y="126" width="12" height="12" fill="#00ADD8" stroke="#282a36" stroke-width="1"/>
  <text x="50" y="136" font-size="13" fill="#ffb86c">Go 13.84%</text>
  <rect x="30" y="148" width="12" height="12" fill="#ff3e00" stroke="#282a36" stroke-width="1"/>
  <text x="50" y="158" font-size="13" fill="#ffb86c">Svelte 12.24%</text>
  <rect x="30" y="170" width="12" height="12" fill="#bd93f9" stroke="#282a36" stroke-width="1"/>
  <text x="50" y="180" font-size="13" fill="#ffb86c">Other 2.68%</text>
  <path d="M380.00,50.00 A70.00,70.00 0 0 1 449.49,128.43 L417.72,124.58 A38.00,38.00 0 0 0 380.00,82.00 Z" fill="#f1e05a" stroke="#282a36" stroke-width="1.5"/>
  <path d="M449.49,128.43 A70.00,70.00 0 0 1 380.63,190.00 L380.34,158.00 A38.00,38.00 0 0 0 417.72,124.58 Z" fill="#3572A5" stroke="#282a36" stroke-width="1.5"/>
  <path d="M380.63,190.00 A70.00,70.00 0 0 1 311.94,136.37 L343.05,128.88 A38.00,38.00 0 0 0 380.34,158.00 Z" fill="#178600" stroke="#282a36" stroke-width="1.5"/>
  <path d="M311.94,136.37 A70.00,70.00 0 0 1 323.58,78.56 L349.37,97.51 A38.00,38.00 0 0 0 343.05,128.88 Z" fill="#00ADD8" stroke="#282a36" stroke-width="1.5"/>
  <path d="M323.58,78.56 A70.00,70.00 0 0 1 368.27,50.99 L373.63,82.54 A38.00,38.00 0 0 0 349.37,97.51 Z" fill="#ff3e00" stroke="#282a36" stroke-width="1.5"/>
  <path d="M368.27,50.99 A70.00,70.00 0 0 1 380.00,50.00 L380.00,82.00 A38.00,38.00 0 0 0 373.63,82.54 Z" fill="#bd93f9" stroke="#282a36" stroke-width="1.5"/>
</svg>