<svg xmlns="http://www.w3.org/2000/svg" width="500" height="220" viewBox="0 0 500 220" font-family="'Segoe UI', Ubuntu, Sans-Serif">
  <rect x="0.5" y="0.5" width="499" height="219" rx="8" fill="#282a36" stroke="#282a36" stroke-opacity="1.00"/>
  <text x="25" y="35" font-size="18" font-weight="600" fill="#ff79c6">Most Commit Language (last year)</text>
  <rect x="30" y="60" width="12" height="12" fill="#f1e05a" stroke="#282a36" stroke-width="1"/>
  <text x="50" y="70" font-size="13" fill="#ffb86c">JavaScript 49.46%</text>
  <rect x="30" y="82" width="12" height="12" fill="#e34c26" stroke="#282a36" stroke-width="1"/>
  <text x="50" y="92" font-size="13" fill="#ffb86c">HTML 11.30%</text>
  <rect x="30" y="104" width="12" height="12" fill="#00ADD8" stroke="#282a36" stroke-width="1"/>
  <text x="50" y="114" font-size="13" fill="#ffb86c">Go 8.14%</text>
  <rect x="30" y="126" width="12" height="12" fill="#b07219" stroke="#282a36" stroke-width="1"/>
  <text x="50" y="136" font-size="13" fill="#ffb86c">Java 8.01%</text>
  <rect x="30" y="148" width="12" height="12" fill="#384d54" stroke="#282a36" stroke-width="1"/>
  <text x="50" y="158" font-size="13" fill="#ffb86c">Dockerfile 3.95%</text>
  <rect x="30" y="170" width="12" height="12" fill="#bd93f9" stroke="#282a36" stroke-width="1"/>
  <text x="50" y="180" font-size="13" fill="#ffb86c">Other 19.13%</text>
  <path d="M380.00,50.00 A70.00,70.00 0 0 1 382.36,189.96 L381.28,157.98 A38.00,38.00 0 0 0 380.00,82.00 Z" fill="#f1e05a" stroke="#282a36" stroke-width="1.5"/>
  <path d="M382.36,189.96 A70.00,70.00 0 0 1 336.17,174.58 L356.21,149.63 A38.00,38.00 0 0 0 381.28,157.98 Z" fill="#e34c26" stroke="#282a36" stroke-width="1.5"/>
  <path d="M336.17,174.58 A70.00,70.00 0 0 1 315.07,146.15 L344.75,134.20 A38.00,38.00 0 0 0 356.21,149.63 Z" fill="#00ADD8" stroke="#282a36" stroke-width="1.5"/>
  <path d="M315.07,146.15 A70.00,70.00 0 0 1 310.51,111.58 L342.28,115.43 A38.00,38.00 0 0 0 344.75,134.20 Z" fill="#b07219" stroke="#282a36" stroke-width="1.5"/>
  <path d="M310.51,111.58 A70.00,70.00 0 0 1 314.71,94.76 L344.56,106.30 A38.00,38.00 0 0 0 342.28,115.43 Z" fill="#384d54" stroke="#282a36" stroke-width="1.5"/>
  <path d="M314.71,94.76 A70.00,70.00 0 0 1 380.00,50.00 L380.00,82.00 A38.00,38.00 0 0 0 344.56,106.30 Z" fill="#bd93f9" stroke="#282a36" stroke-width="1.5"/>
</svg>