<svg xmlns="http://www.w3.org/2000/svg" width="500" height="220" viewBox="0 0 500 220" font-family="'Segoe UI', Ubuntu, Sans-Serif">
  <rect x="0.5" y="0.5" width="499" height="219" rx="8" fill="#282a36" stroke="#282a36" stroke-opacity="1.00"/>
  <text x="25" y="35" font-size="18" font-weight="600" fill="#ff79c6">Most Commit Language (all time)</text>
  <rect x="30" y="60" width="12" height="12" fill="#f1e05a" stroke="#282a36" stroke-width="1"/>
  <text x="50" y="70" font-size="13" fill="#ffb86c">JavaScript 33.00%</text>
  <rect x="30" y="82" width="12" height="12" fill="#e34c26" stroke="#282a36" stroke-width="1"/>
  <text x="50" y="92" font-size="13" fill="#ffb86c">HTML 20.56%</text>
  <rect x="30" y="104" width="12" height="12" fill="#b07219" stroke="#282a36" stroke-width="1"/>
  <text x="50" y="114" font-size="13" fill="#ffb86c">Java 17.54%</text>
  <rect x="30" y="126" width="12" height="12" fill="#f34b7d" stroke="#282a36" stroke-width="1"/>
  <text x="50" y="136" font-size="13" fill="#ffb86c">C++ 5.38%</text>
  <rect x="30" y="148" width="12" height="12" fill="#3572A5" stroke="#282a36" stroke-width="1"/>
  <text x="50" y="158" font-size="13" fill="#ffb86c">Python 4.91%</text>
  <rect x="30" y="170" width="12" height="12" fill="#bd93f9" stroke="#282a36" stroke-width="1"/>
  <text x="50" y="180" font-size="13" fill="#ffb86c">Other 18.61%</text>
  <path d="M380.00,50.00 A70.00,70.00 0 0 1 441.34,153.73 L413.30,138.31 A38.00,38.00 0 0 0 380.00,82.00 Z" fill="#f1e05a" stroke="#282a36" stroke-width="1.5"/>
  <path d="M441.34,153.73 A70.00,70.00 0 0 1 364.48,188.26 L371.58,157.05 A38.00,38.00 0 0 0 413.30,138.31 Z" fill="#e34c26" stroke="#282a36" stroke-width="1.5"/>
  <path d="M364.48,188.26 A70.00,70.00 0 0 1 312.09,136.99 L343.14,129.22 A38.00,38.00 0 0 0 371.58,157.05 Z" fill="#b07219" stroke="#282a36" stroke-width="1.5"/>
  <path d="M312.09,136.99 A70.00,70.00 0 0 1 310.30,113.51 L342.16,116.47 A38.00,38.00 0 0 0 343.14,129.22 Z" fill="#f34b7d" stroke="#282a36" stroke-width="1.5"/>
  <path d="M310.30,113.51 A70.00,70.00 0 0 1 315.57,92.64 L345.02,105.15 A38.00,38.00 0 0 0 342.16,116.47 Z" fill="#3572A5" stroke="#282a36" stroke-width="1.5"/>
  <path d="M315.57,92.64 A70.00,70.00 0 0 1 380.00,50.00 L380.00,82.00 A38.00,38.00 0 0 0 345.02,105.15 Z" fill="#bd93f9" stroke="#282a36" stroke-width="1.5"/>
</svg>