<svg xmlns="http://www.w3.org/2000/svg" width="500" height="220" viewBox="0 0 500 220" font-family="'Segoe UI', Ubuntu, Sans-Serif">
  <rect x="0.5" y="0.5" width="499" height="219" rx="8" fill="#282a36" stroke="#282a36" stroke-opacity="1.00"/>
  <text x="25" y="35" font-size="18" font-weight="600" fill="#ff79c6">Most Commit Language (last year)</text>
  <rect x="30" y="60" width="12" height="12" fill="#f1e05a" stroke="#282a36" stroke-width="1"/>
  <text x="50" y="70" font-size="13" fill="#ffb86c">JavaScript 48.92%</text>
  <rect x="30" y="82" width="12" height="12" fill="#e34c26" stroke="#282a36" stroke-width="1"/>
  <text x="50" y="92" font-size="13" fill="#ffb86c">HTML 11.18%</text>
  <rect x="30" y="104" width="12" height="12" fill="#00ADD8" stroke="#282a36" stroke-width="1"/>
  <text x="50" y="114" font-size="13" fill="#ffb86c">Go 9.11%</text>
  <rect x="30" y="126" width="12" height="12" fill="#b07219" stroke="#282a36" stroke-width="1"/>
  <text x="50" y="136" font-size="13" fill="#ffb86c">Java 7.92%</text>
  <rect x="30" y="148" width="12" height="12" fill="#384d54" stroke="#282a36" stroke-width="1"/>
  <text x="50" y="158" font-size="13" fill="#ffb86c">Dockerfile 3.92%</text>
  <rect x="30" y="170" width="12" height="12" fill="#bd93f9" stroke="#282a36" stroke-width="1"/>
  <text x="50" y="180" font-size="13" fill="#ffb86c">Other 18.95%</text>
  <path d="M380.00,50.00 A70.00,70.00 0 0 1 384.75,189.84 L382.58,157.91 A38.00,38.00 0 0 0 380.00,82.00 Z" fill="#f1e05a" stroke="#282a36" stroke-width="1.5"/>
  <path d="M384.75,189.84 A70.00,70.00 0 0 1 338.50,176.38 L357.47,150.60 A38.00,38.00 0 0 0 382.58,157.91 Z" fill="#e34c26" stroke="#282a36" stroke-width="1.5"/>
  <path d="M338.50,176.38 A70.00,70.00 0 0 1 314.58,144.91 L344.49,133.52 A38.00,38.00 0 0 0 357.47,150.60 Z" fill="#00ADD8" stroke="#282a36" stroke-width="1.5"/>
  <path d="M314.58,144.91 A70.00,70.00 0 0 1 310.63,110.64 L342.34,114.92 A38.00,38.00 0 0 0 344.49,133.52 Z" fill="#b07219" stroke="#282a36" stroke-width="1.5"/>
  <path d="M310.63,110.64 A70.00,70.00 0 0 1 315.00,94.02 L344.71,105.90 A38.00,38.00 0 0 0 342.34,114.92 Z" fill="#384d54" stroke="#282a36" stroke-width="1.5"/>
  <path d="M315.00,94.02 A70.00,70.00 0 0 1 380.00,50.00 L380.00,82.00 A38.00,38.00 0 0 0 344.71,105.90 Z" fill="#bd93f9" stroke="#282a36" stroke-width="1.5"/>
</svg>